<?xml version="1.0" standalone="no"?>
<!DOCTYPE svg PUBLIC "-//W3C//DTD SVG 20010904//EN"
 "http://www.w3.org/TR/2001/REC-SVG-20010904/DTD/svg10.dtd">
<svg version="1.0" xmlns="http://www.w3.org/2000/svg"
 width="700.000000pt" height="700.000000pt" viewBox="0 0 700.000000 700.000000"
 preserveAspectRatio="xMidYMid meet">
<metadata>
Created by potrace 1.14, written by Peter Selinger 2001-2017
</metadata>
<g transform="translate(0.000000,700.000000) scale(0.100000,-0.100000)"
fill="#000000" stroke="none">
<path d="M2487 6634 c-1 -1 -69 -4 -151 -8 -82 -4 -152 -8 -155 -10 -3 -2 -38
-6 -76 -10 -71 -6 -112 -12 -151 -21 -12 -3 -39 -7 -60 -10 -61 -10 -241 -55
-319 -80 -380 -123 -682 -349 -878 -656 -166 -260 -271 -603 -313 -1024 -14
-148 -18 -400 -18 -1305 0 -926 4 -1204 18 -1330 3 -19 7 -60 10 -90 7 -58 8
-67 32 -200 75 -412 235 -743 478 -986 174 -174 366 -290 644 -390 50 -18 92
-31 92 -29 0 2 19 -2 41 -10 75 -27 297 -67 489 -90 238 -27 2426 -28 2655 0
92 11 141 17 160 20 11 2 40 7 64 10 153 21 402 90 535 149 355 158 590 365
765 676 28 49 51 92 51 94 0 3 13 33 29 68 26 55 87 226 96 268 2 8 10 42 18
75 39 151 71 378 83 590 10 163 10 2156 1 2325 -7 133 -9 152 -33 325 -109
784 -485 1276 -1149 1503 -170 58 -436 112 -625 127 -47 4 -103 9 -125 12 -33
4 -2202 11 -2208 7z m2233 -447 c25 -4 72 -9 105 -12 222 -21 470 -86 645
-168 236 -111 421 -295 534 -532 38 -79 109 -282 119 -340 3 -16 12 -64 21
-105 8 -41 18 -102 21 -135 4 -33 9 -69 11 -80 15 -74 19 -369 19 -1325 0
-967 -3 -1183 -20 -1310 -2 -19 -7 -57 -11 -85 -12 -102 -45 -253 -80 -363
-113 -362 -309 -596 -621 -742 -156 -73 -380 -134 -573 -156 -25 -3 -56 -7
-70 -9 -87 -16 -354 -20 -1310 -20 -949 0 -1207 4 -1340 20 -340 41 -600 126
-800 259 -92 62 -222 189 -280 276 -107 159 -207 421 -236 620 -3 19 -7 42 -9
50 -2 8 -7 42 -11 75 -3 33 -8 69 -10 80 -19 100 -29 2263 -11 2500 29 401
117 711 264 935 75 113 139 180 278 288 29 23 159 93 220 120 104 44 286 98
395 117 102 18 253 36 343 41 56 4 103 8 105 9 6 5 2261 -3 2302 -8z"/>
<path d="M1942 5378 c-194 -21 -384 -156 -465 -330 -10 -21 -26 -72 -37 -114
-19 -74 -20 -117 -19 -1268 0 -1107 2 -1196 18 -1256 25 -91 63 -166 118 -233
115 -138 243 -201 474 -231 130 -17 409 -87 614 -154 222 -73 340 -120 565
-228 250 -119 327 -122 523 -21 337 175 827 334 1249 406 182 32 257 56 342
114 113 78 218 234 244 365 4 21 7 588 7 1262 l0 1225 -26 67 c-72 187 -192
304 -379 370 -144 52 -441 19 -803 -87 -111 -33 -323 -104 -372 -125 -11 -5
-56 -24 -100 -43 -126 -54 -234 -107 -315 -155 l-75 -45 -65 37 c-386 218
-965 409 -1342 442 -40 3 -75 7 -78 8 -3 1 -38 -1 -78 -6z m168 -443 c334 -44
820 -210 1103 -377 l67 -40 0 -77 c3 -393 1 -2413 -2 -2416 -2 -2 -64 21 -138
51 -285 117 -761 260 -960 289 -14 2 -38 6 -55 9 -16 3 -61 10 -100 16 -80 13
-123 40 -150 96 -16 34 -17 113 -17 1190 0 1118 1 1156 19 1191 12 23 35 46
61 59 42 22 61 23 172 9z m2965 -17 c71 -47 67 33 67 -1241 0 -629 -3 -1155
-7 -1168 -19 -61 -74 -107 -139 -115 -321 -39 -849 -187 -1185 -333 l-91 -40
0 30 c0 16 0 490 0 1054 0 564 0 1112 0 1219 l0 194 43 25 c308 178 749 333
1117 390 14 3 55 5 93 6 54 1 74 -3 102 -21z"/>
</g>
</svg>
