<?xml version="1.0" standalone="no"?>
<!DOCTYPE svg PUBLIC "-//W3C//DTD SVG 20010904//EN"
 "http://www.w3.org/TR/2001/REC-SVG-20010904/DTD/svg10.dtd">
<svg version="1.0" xmlns="http://www.w3.org/2000/svg"
 width="512.000000pt" height="512.000000pt" viewBox="0 0 512.000000 512.000000"
 preserveAspectRatio="xMidYMid meet">

<g transform="translate(0.000000,512.000000) scale(0.100000,-0.100000)"
fill="#000000" stroke="none">
<path d="M2060 5082 l-30 -30 0 -232 0 -232 29 -29 c36 -36 73 -37 106 -4 l25
24 0 239 c0 267 -2 276 -67 288 -27 5 -37 1 -63 -24z"/>
<path d="M2973 5100 c-40 -16 -43 -39 -43 -285 l0 -236 25 -24 c33 -33 70 -32
106 4 l29 29 0 232 0 232 -29 29 c-30 30 -50 34 -88 19z"/>
<path d="M1513 4204 c-289 -63 -519 -289 -593 -580 -20 -79 -20 -103 -18
-1095 l3 -1014 29 -83 c103 -296 353 -497 661 -533 58 -7 419 -9 1030 -7 1059
4 985 -1 1160 83 206 100 351 278 417 511 l23 79 0 990 0 990 -23 80 c-86 303
-309 518 -602 580 -101 21 -1990 21 -2087 -1z m2072 -159 c227 -59 403 -231
460 -451 23 -87 23 -1980 0 -2069 -43 -172 -171 -329 -326 -403 -148 -70 -91
-67 -1159 -67 -1070 0 -1013 -3 -1160 68 -156 76 -282 231 -325 402 -21 84
-22 1981 -1 2061 60 225 234 400 456 458 85 23 1969 23 2055 1z"/>
<path d="M2253 3086 c-95 -31 -180 -101 -221 -183 -37 -72 -42 -133 -42 -487
0 -332 1 -344 21 -370 27 -35 86 -36 117 -3 21 22 22 32 22 230 l0 207 200 0
200 0 0 -182 c0 -241 11 -278 85 -278 41 0 63 17 75 58 13 47 13 613 0 705
-18 126 -97 234 -208 285 -68 31 -184 40 -249 18z m175 -161 c85 -36 122 -100
122 -210 l0 -75 -200 0 -200 0 0 64 c0 34 5 78 11 97 38 112 160 168 267 124z"/>
<path d="M2995 3075 l-25 -24 0 -489 c0 -480 0 -490 21 -516 16 -20 29 -26 59
-26 30 0 43 6 59 26 21 26 21 36 21 506 0 401 -2 484 -15 507 -24 48 -81 56
-120 16z"/>
<path d="M64 3080 c-28 -11 -54 -48 -54 -76 0 -12 9 -33 21 -48 l20 -26 244 0
c222 0 245 2 266 19 31 25 32 83 1 114 -22 21 -30 22 -250 24 -125 1 -237 -2
-248 -7z"/>
<path d="M4580 3077 c-51 -26 -61 -93 -18 -129 18 -16 46 -18 263 -18 l244 0
20 26 c28 35 26 67 -3 101 l-24 28 -229 3 c-170 2 -234 -1 -253 -11z"/>
<path d="M35 2165 c-16 -15 -25 -36 -25 -55 0 -19 9 -40 25 -55 l24 -25 236 0
237 0 30 30 c35 36 33 71 -8 108 -25 21 -31 22 -260 22 l-235 0 -24 -25z"/>
<path d="M4559 2161 c-16 -16 -29 -39 -29 -51 0 -12 13 -35 29 -51 l29 -29
237 0 236 0 24 25 c16 15 25 36 25 55 0 19 -9 40 -25 55 l-24 25 -236 0 -237
0 -29 -29z"/>
<path d="M2059 561 l-24 -19 0 -247 0 -247 24 -19 c35 -28 85 -25 110 7 20 25
21 39 21 264 0 234 0 237 -23 258 -29 27 -77 28 -108 3z"/>
<path d="M2952 557 c-21 -23 -22 -31 -22 -259 0 -223 1 -237 21 -262 25 -32
75 -35 110 -7 l24 19 0 247 0 247 -24 19 c-32 26 -82 25 -109 -4z"/>
</g>
</svg>
